<svg width="34" height="35" viewBox="0 0 34 35" fill="none" xmlns="http://www.w3.org/2000/svg">
<path d="M2 2.5H7.45455L11.1091 21.6286C11.2338 22.2863 11.5753 22.8771 12.0739 23.2976C12.5725 23.7181 13.1964 23.9414 13.8364 23.9286H27.0909C27.7309 23.9414 28.3548 23.7181 28.8533 23.2976C29.3519 22.8771 29.6935 22.2863 29.8182 21.6286L32 9.64286H8.81818M14.2727 31.0714C14.2727 31.8604 13.6622 32.5 12.9091 32.5C12.156 32.5 11.5455 31.8604 11.5455 31.0714C11.5455 30.2824 12.156 29.6429 12.9091 29.6429C13.6622 29.6429 14.2727 30.2824 14.2727 31.0714ZM29.2727 31.0714C29.2727 31.8604 28.6622 32.5 27.9091 32.5C27.156 32.5 26.5455 31.8604 26.5455 31.0714C26.5455 30.2824 27.156 29.6429 27.9091 29.6429C28.6622 29.6429 29.2727 30.2824 29.2727 31.0714Z" stroke="#402000" stroke-width="3.5" stroke-linecap="round" stroke-linejoin="round"/>
</svg>
