<svg width="30" height="29" viewBox="0 0 30 29" fill="none" xmlns="http://www.w3.org/2000/svg">
<path d="M12.2718 2.65615C13.1699 -0.107782 17.0801 -0.107779 17.9782 2.65615L19.3627 6.91731C19.7643 8.15337 20.9162 8.99025 22.2159 8.99025H26.6963C29.6025 8.99025 30.8108 12.7091 28.4597 14.4173L24.8349 17.0508C23.7835 17.8148 23.3435 19.1689 23.7451 20.4049L25.1296 24.6661C26.0277 27.43 22.8643 29.7284 20.5131 28.0202L16.8884 25.3867C15.8369 24.6227 14.4131 24.6227 13.3616 25.3867L9.73689 28.0202C7.38575 29.7284 4.22231 27.43 5.12037 24.6661L6.5049 20.4049C6.90652 19.1689 6.46655 17.8148 5.41508 17.0508L1.79033 14.4173C-0.56081 12.7091 0.64752 8.99025 3.55369 8.99025H8.03413C9.33381 8.99025 10.4857 8.15337 10.8873 6.9173L12.2718 2.65615Z" fill="#402000"/>
</svg>
